<svg id="new_graph" data-name="new graph" xmlns="http://www.w3.org/2000/svg" viewBox="0 0 157.46 110.82"><defs><style>.cls-1{fill:none;stroke:#231f20;stroke-miterlimit:10;}.cls-2{fill-rule:evenodd;}</style></defs><title>2006</title><rect x="0.47" y="105.68" width="130.8" height="5.14"/><path class="cls-1" d="M221.34,727.66s78.25-236.66,156.51,0" transform="translate(-220.87 -621.98)"/><path class="cls-2" d="M327.06,715.06v-2.57H325a8.23,8.23,0,0,0-1.27-3.4l1.31-1.43-2.09-2.09-1.52,1.23a8.33,8.33,0,0,0-3.35-1.5v-1.8H315.5v1.73a8.36,8.36,0,0,0-3.43,1.34l-1.4-1.28-2.1,2.09,1.26,1.76a8.64,8.64,0,0,0-1.45,3.35h-1.88v2.57h1.85a8.44,8.44,0,0,0,1.32,3.34l-1.39,1.25,2.09,2.09,1.86-1.35a8.58,8.58,0,0,0,3.25,1.43V724h2.57v-1.94a8.75,8.75,0,0,0,3.31-1.5l1.27,1.4,2.09-2.08-1.34-1.61a8.5,8.5,0,0,0,1.49-3.26h2.16Zm-10.39,1.25a2.75,2.75,0,1,1,2.75-2.75A2.75,2.75,0,0,1,316.67,716.3Z" transform="translate(-220.87 -621.98)"/><polygon points="121 78.91 109.36 91.03 112.48 91.03 112.48 100.78 118.66 100.78 118.66 93.77 123.35 93.77 123.35 100.78 129.53 100.78 129.53 91.03 132.65 91.03 121 78.91"/></svg>