<svg id="new_graph" data-name="new graph" xmlns="http://www.w3.org/2000/svg" viewBox="0 0 157.48 151.23"><defs><style>.cls-1{fill:none;stroke:#231f20;stroke-miterlimit:10;}</style></defs><title>2008</title><rect x="0.49" y="146.09" width="130.8" height="5.14"/><path class="cls-1" d="M377.85,727.66s68.25-327.58,156.51,0" transform="translate(-377.36 -581.57)"/><polygon points="122.83 127.82 114.86 132.82 117.1 132.82 117.1 139.86 121.57 139.86 121.57 134.79 124.95 134.79 124.95 139.86 129.41 139.86 129.41 132.82 129.58 132.44 122.83 127.82"/><polygon points="115.28 127.57 106.62 132.82 108.87 132.82 108.87 139.86 113.33 139.86 113.33 139.86 116.72 139.86 116.72 139.86 121.18 139.86 121.18 132.82 123.43 132.82 115.28 127.57"/><rect x="105.97" y="124.2" width="4" height="15.61"/><path d="M453.07,702.79h1.51v-2.5H453.4a0.51,0.51,0,0,0-.38.17C452.81,700.69,452.91,700.73,453.07,702.79Z" transform="translate(-377.36 -581.57)"/><path d="M458.34,702.79h1.5v-2.5h-1.5v2.5Z" transform="translate(-377.36 -581.57)"/><path d="M456.59,702.79h1.5v-2.5h-1.5v2.5Z" transform="translate(-377.36 -581.57)"/><path d="M461.63,700.28h-1.54v2.5h1.64C461.71,702,461.68,701.17,461.63,700.28Z" transform="translate(-377.36 -581.57)"/><path d="M454.83,702.79h1.5v-2.5h-1.5v2.5Z" transform="translate(-377.36 -581.57)"/><path d="M459.39,716.64h0a25.79,25.79,0,0,1-2.72,4.88h-7.26c3.49-5.39,4.13-11.33,3.71-17.71h8.59a41,41,0,0,1-.3,5.1A21.68,21.68,0,0,1,459.39,716.64Z" transform="translate(-377.36 -581.57)"/><path d="M462.8,698.72h1.65v-3h-1.37a0.51,0.51,0,0,0-.38.17C462.47,696.12,462.59,696.1,462.8,698.72Z" transform="translate(-377.36 -581.57)"/><path d="M474.74,695.7v3h1.65c0.21-2.62.32-2.61,0.1-2.85a0.51,0.51,0,0,0-.38-0.17h-1.37Z" transform="translate(-377.36 -581.57)"/><path d="M458.24,721.88H481c-4.37-6.6-5.16-13.9-4.64-21.78H462.87c0.1,1.39.13,2.8,0.13,3h0a36.62,36.62,0,0,1-1.55,12h0A27.17,27.17,0,0,1,458.24,721.88Z" transform="translate(-377.36 -581.57)"/><path d="M469.6,707.56a4.95,4.95,0,1,1-4.95,5A5,5,0,0,1,469.6,707.56Z" transform="translate(-377.36 -581.57)"/><path d="M466.46,695.7h-1.75v3h1.75v-3Z" transform="translate(-377.36 -581.57)"/><path d="M468.46,695.7h-1.75v3h1.75v-3Z" transform="translate(-377.36 -581.57)"/><path d="M470.47,695.7h-1.75v3h1.75v-3Z" transform="translate(-377.36 -581.57)"/><path d="M472.48,695.7h-1.75v3h1.75v-3Z" transform="translate(-377.36 -581.57)"/><path d="M474.49,695.7h-1.75v3h1.75v-3Z" transform="translate(-377.36 -581.57)"/></svg>