<svg id="new_graph" data-name="new graph" xmlns="http://www.w3.org/2000/svg" xmlns:xlink="http://www.w3.org/1999/xlink" viewBox="0 0 333.96 223.23"><defs><style>.cls-1,.cls-2{fill:none;}.cls-2{stroke:#231f20;stroke-miterlimit:10;}.cls-3{clip-path:url(#clip-path);}</style><clipPath id="clip-path" transform="translate(-533.88 -509.57)"><path class="cls-1" d="M779,719.16c-1.44-.56,11.22-22.67,11.22-22.67l24.73,0.2-15.47-28.23-35.25-1-17.46,21.15,13.43,30.55H779Z"/></clipPath></defs><title>2010</title><rect x="0.48" y="218.09" width="301.49" height="5.14"/><path class="cls-2" d="M534.35,727.66s156.51-489.58,333,0" transform="translate(-533.88 -509.57)"/><path d="M821.39,698.14a6.76,6.76,0,0,1,6.75,6.75v6.28h-0.91a3.21,3.21,0,0,0-3.2,3.2v2h10.52v-2a3.21,3.21,0,0,0-3.2-3.2h-0.91v-6.28a9,9,0,0,0-18.09,0h2.3A6.75,6.75,0,0,1,821.39,698.14Z" transform="translate(-533.88 -509.57)"/><path d="M824,716.92v3.13h2v2.26h2.3v-2.26h2v2.26h2.3v-2.26h2v-3.13H824Z" transform="translate(-533.88 -509.57)"/><polygon points="266.51 197.1 260.29 197.1 259.1 201.46 266.51 201.46 266.51 197.1"/><polygon points="257.81 206.15 266.51 206.15 266.51 202.03 258.94 202.03 257.81 206.15"/><polygon points="274.65 202.03 267.08 202.03 267.08 206.15 275.78 206.15 274.65 202.03"/><polygon points="267.08 201.46 274.5 201.46 273.3 197.1 267.08 197.1 267.08 201.46"/><polygon points="267.08 193.16 267.08 196.53 273.15 196.53 272.23 193.17 267.08 193.16"/><polygon points="266.51 193.16 261.37 193.16 260.45 196.52 266.51 196.53 266.51 193.16"/><path d="M800.39,697.78H796.6l-1.2,4.38h5v-4.38Z" transform="translate(-533.88 -509.57)"/><path d="M805.35,697.78l1.2,4.38h6.58l-2.4-4.38h-5.38Z" transform="translate(-533.88 -509.57)"/><path d="M801,697.78v4.38h5l-1.2-4.38H801Z" transform="translate(-533.88 -509.57)"/><path d="M780.65,716.58v3.71H820.7v-3.71H780.65Z" transform="translate(-533.88 -509.57)"/><path d="M791.1,715.72l1.13-4.12h-9.17l-2.26,4.12h10.3Z" transform="translate(-533.88 -509.57)"/><path d="M792.38,711l1.19-4.36h-7.82L783.37,711h9Z" transform="translate(-533.88 -509.57)"/><path d="M793.73,706.09l0.92-3.36h-6.74l-1.84,3.36h7.66Z" transform="translate(-533.88 -509.57)"/><path d="M794.81,702.16l1.2-4.38h-5.38l-2.4,4.38h6.58Z" transform="translate(-533.88 -509.57)"/><path d="M806.7,702.73l0.92,3.36h7.66l-1.84-3.36H806.7Z" transform="translate(-533.88 -509.57)"/><path d="M807.78,706.67L809,711h9l-2.39-4.36h-7.82Z" transform="translate(-533.88 -509.57)"/><path d="M809.13,711.6l1.13,4.12h10.29l-2.26-4.12h-9.17Z" transform="translate(-533.88 -509.57)"/><g class="cls-3"><path d="M786.31,703.21h0a9.13,9.13,0,1,0-6.48-15.57,9.07,9.07,0,0,0,6.48,15.57Zm-4-13.15a5.7,5.7,0,1,1-1.66,4A5.7,5.7,0,0,1,782.28,690.06Z" transform="translate(-533.88 -509.57)"/><polygon points="254.12 168.76 250.69 168.77 252.42 174.86 254.12 168.76"/><polygon points="262.34 172.15 259.25 177.68 264.76 174.57 262.34 172.15"/><polygon points="268.18 186.2 268.18 182.78 262.09 184.5 268.18 186.2"/><polygon points="264.8 194.42 259.27 191.33 262.38 196.85 264.8 194.42"/><polygon points="252.45 194.17 250.75 200.27 254.17 200.26 252.45 194.17"/><polygon points="242.53 196.88 245.62 191.35 240.1 194.46 242.53 196.88"/><polygon points="242.78 184.53 236.68 182.83 236.69 186.26 242.78 184.53"/><polygon points="242.49 172.19 240.07 174.61 245.59 177.7 242.49 172.19"/></g></svg>