<svg id="new_graph" data-name="new graph" xmlns="http://www.w3.org/2000/svg" viewBox="0 0 157.48 151.23"><defs><style>.cls-1{fill:none;stroke:#231f20;stroke-miterlimit:10;}.cls-2{fill:#231f20;}</style></defs><title>2014</title><rect x="0.49" y="146.09" width="130.8" height="5.14"/><path class="cls-1" d="M867.37,727.66s68.25-327.58,156.51,0" transform="translate(-866.88 -581.57)"/><path class="cls-2" d="M980,708.51l4.05,3.54-3.73,4.28,13.84,2.7-4.57-13.34-3.68,4.22-4-3.45-1-.88-13.4-11.67a1.46,1.46,0,0,0-1.07-.34,1.39,1.39,0,0,0-1,.54l-8.89,11.33-16.63-14.59a1.41,1.41,0,1,0-1.86,2.12l17.76,15.58a1.44,1.44,0,0,0,1.06.34,1.48,1.48,0,0,0,1-.53L966.78,697,979,707.65Z" transform="translate(-866.88 -581.57)"/></svg>