<svg id="new_graph" data-name="new graph" xmlns="http://www.w3.org/2000/svg" viewBox="0 0 157.44 99.71"><defs><style>.cls-1{fill:none;stroke:#231f20;stroke-miterlimit:10;}</style></defs><title>2016</title><rect x="0.47" y="94.57" width="130.8" height="5.14"/><path class="cls-1" d="M1024.27,727.66s78.25-211.66,156.51,0" transform="translate(-1023.8 -633.09)"/><path d="M1155.07,724h-92.28v-1.37c0-.07,0-0.13,0-0.19,0-9,6.09-16.33,14-17.54a7.7,7.7,0,1,1,4.55,0c6.79,1,12.22,6.65,13.62,13.88a15,15,0,0,1,5.41-1.93,7.69,7.69,0,1,1,4.54,0,15.64,15.64,0,0,1,8.48,4.27,6.21,6.21,0,0,1,4-2.51,3,3,0,1,1,1.77,0,6.22,6.22,0,0,1,4,2.44,9,9,0,0,1,5.93-3.73,4.35,4.35,0,1,1,2.57,0,8.47,8.47,0,0,1,3.06,1.09,9.55,9.55,0,0,1,7.69-7.84,4.35,4.35,0,1,1,2.57,0S1156.39,709.77,1155.07,724Z" transform="translate(-1023.8 -633.09)"/></svg>