<svg id="ICONS" xmlns="http://www.w3.org/2000/svg" viewBox="0 0 20.55 20.55"><defs><style>.cls-1{fill-rule:evenodd;}</style></defs><title>cog</title><path class="cls-1" d="M191.92,388v-2.57h-2.07a8.23,8.23,0,0,0-1.27-3.4l1.31-1.43-2.09-2.09-1.52,1.23a8.33,8.33,0,0,0-3.35-1.5v-1.8h-2.57v1.73a8.36,8.36,0,0,0-3.43,1.34l-1.4-1.28-2.1,2.09,1.26,1.76a8.64,8.64,0,0,0-1.45,3.35h-1.88V388h1.85a8.44,8.44,0,0,0,1.32,3.34l-1.39,1.25,2.09,2.09,1.86-1.35a8.58,8.58,0,0,0,3.25,1.43V397h2.57V395a8.75,8.75,0,0,0,3.31-1.5l1.27,1.4,2.09-2.08-1.34-1.61a8.5,8.5,0,0,0,1.49-3.26h2.16Zm-10.39,1.25a2.75,2.75,0,1,1,2.75-2.75A2.75,2.75,0,0,1,181.53,389.23Z" transform="translate(-171.37 -376.43)"/></svg>