<svg id="Layer_1" data-name="Layer 1" xmlns="http://www.w3.org/2000/svg" viewBox="0 0 149.86 131.1"><defs><style>.cls-1{opacity:0.1;}.cls-2{fill:#ed1c24;}</style></defs><title>hero</title><g class="cls-1"><polygon points="0 83.06 49 113.23 137.99 60.75 137.99 53.37 49 103.72 0 74.9 0 83.06"/><polygon points="49 121.58 0 89.99 0 98.18 49 131.1 137.99 74.3 137.99 66.95 49 121.58"/><path d="M608.89,318.55c-2.44.81-4.87,1.68-7.33,2.54l0-.11,0,0.11q-45,15.64-90,31.35,24.52,13.75,49,27.41,44.47-24.08,89-48.22Zm-57.25,49.56c-6.17-3.41-11.27-6.24-17.66-9.74a6.33,6.33,0,0,0,.5-8c7.57-2.75,14.17-5.15,20.36-7.42-0.23,3.46,3,7.42,9.57,10.67a52.13,52.13,0,0,0,23.38,4.84L569,368.37C565,364.58,556.75,364.88,551.64,368.11Zm22-23.8a5.61,5.61,0,0,0,2.06.4,15.22,15.22,0,0,0,3.71-.71c2.87-.78,5.09-1.33,6.66-1.58a21.29,21.29,0,0,1,5.12-.18,14.74,14.74,0,0,1,4.65,1c1.88,0.8,2.87,1.81,3,3.08s-0.87,2.6-3.22,4c1.37,0.61,2.08.92,3.46,1.56-1.11.56-1.71,0.82-2.82,1.42-1.41-.65-2.09-1-3.49-1.61a21.16,21.16,0,0,1-14.29.75c1.51-1.15,2.26-1.72,3.77-2.84a11.13,11.13,0,0,0,7.88-.66c1.19-.6,1.88-1.12,2-1.64a1,1,0,0,0-.81-1.14,4.48,4.48,0,0,0-2.36-.34,20.8,20.8,0,0,0-4.26,1,28.78,28.78,0,0,1-9.54,1.53,15.13,15.13,0,0,1-5.84-1.35c-2-.94-3-2-3.09-3.15s0.76-2.17,2.56-3.08c-1.16-.52-1.76-0.83-2.91-1.35,1.18-.43,1.8-0.68,3-1.12,1.15,0.49,1.72.77,2.86,1.29a25.4,25.4,0,0,1,12.87-.63c-1.27,1-1.88,1.54-3.13,2.6a10.72,10.72,0,0,0-6.73.42C572.65,342.86,572.24,343.65,573.66,344.31ZM615.37,326c4.69,1.55,8.62,2.88,12.91,4.3a6.19,6.19,0,0,0-.07,6.94L609.7,347c0.17-3.52-2.77-6.89-8.86-9.39-5.94-2.38-13.61-3.56-21.15-3.61,6-2.22,12.48-4.55,19.86-7.2A21.23,21.23,0,0,0,615.37,326Z" transform="translate(-511.54 -285.65)"/><path class="cls-2" d="M601.9,410.35q-1.6,0-3.2-.09c-3.36-.19-6.78-0.24-15-3.17l13.05-10.92c0.8,0-.22-0.26,1.07,0,6.66,1.33,20.58-2.08,28.55-7.59L562.7,316.23a48,48,0,0,0-10.22,19.09l-0.25.9h0c0.25-.9-0.1-0.67-0.27.54l-14.12,2.66c-0.27-1.86.77-6.63,1-7.26l0.14-.52A62.32,62.32,0,0,1,661.4,348a64,64,0,0,1-19.92,46.32A57.34,57.34,0,0,1,601.9,410.35ZM573.37,307.12L636.55,379a50,50,0,0,0,10.82-31A48.27,48.27,0,0,0,573.37,307.12Z" transform="translate(-511.54 -285.65)"/></g></svg>