<svg id="new_graph" data-name="new graph" xmlns="http://www.w3.org/2000/svg" viewBox="0 0 12.8 21.18"><defs><style>.cls-1{fill:#010101;}</style></defs><title>lightbulb</title><path class="cls-1" d="M195.85,703.76A7.22,7.22,0,0,0,191.3,702h-0.22a6.26,6.26,0,0,0-4.39,1.77c-3.14,3-1.37,7.64,0,9.4a7.83,7.83,0,0,1,1.17,3.73v0.27h0v0.52h6.82v-0.52h0v-0.27a8,8,0,0,1,1.18-3.73C197,711.69,199.44,706.78,195.85,703.76Z" transform="translate(-184.94 -702)"/><rect class="cls-1" x="2.93" y="16.26" width="6.82" height="0.95"/><path class="cls-1" d="M188.07,720.73h6.4a4.35,4.35,0,0,0,.19-0.94h-6.79A3.88,3.88,0,0,0,188.07,720.73Z" transform="translate(-184.94 -702)"/><path class="cls-1" d="M191.27,723.18a3.36,3.36,0,0,0,3-1.88h-5.92A3.38,3.38,0,0,0,191.27,723.18Z" transform="translate(-184.94 -702)"/></svg>