<svg id="Layer_1" data-name="Layer 1" xmlns="http://www.w3.org/2000/svg" viewBox="0 0 769.73 83.35"><defs><style>.cls-1{fill:#231f20;}</style></defs><title>morepowertoyou</title><path class="cls-1" d="M310,546.53l-0.21,1.07a11,11,0,0,1-3,3.77l-0.93.71c-1.07.71-2.14,1.28-3.2,1.85a2.32,2.32,0,0,0-.78,1.14,11.1,11.1,0,0,1-.5,1.64L300.81,558l-0.43,1a7.09,7.09,0,0,0-.5,1.07c-1.21,2.64-2.35,5.34-3.49,8l-0.57,1.28c-0.57,1.35-1.14,2.71-1.64,4.06a7.83,7.83,0,0,0-.5,1.14,7.16,7.16,0,0,0-.5,1.07c-0.36.71-.64,1.42-0.93,2.14a2.51,2.51,0,0,1-.28.64l-0.28.57-0.85,1.85c-0.93,2.07-1.78,4.13-2.64,6.27l-1.64,3.7a2.52,2.52,0,0,0-.28.64c-0.5.85-.93,1.71-1.35,2.64a2.51,2.51,0,0,0-.28.64,2.87,2.87,0,0,0-.36.64,16.07,16.07,0,0,0-1.5,3.42c-0.57,2.35-2.49,5.27-.36,7.34a1.7,1.7,0,0,0,.78.43,3.68,3.68,0,0,0,2.49-.43,24.69,24.69,0,0,0,3.2-2.07l0.78-.64a5.39,5.39,0,0,0,.78-0.57l0.78-.64a42.09,42.09,0,0,0,3.63-3.49l0.43-.5a3.28,3.28,0,0,0,.5-0.5l0.71-1a1.91,1.91,0,0,0,.5-0.57l0.43-.64a3.9,3.9,0,0,0,.5-0.64c0.71-1.07,1.35-2.14,2.14-3.2a3.91,3.91,0,0,0,.36-0.57l1.28-2.35,0.36-.57,0.28-.57c0.78-1.57,1.5-3.13,2.28-4.63a1,1,0,0,1,1.35-.36,1.15,1.15,0,0,1,.5,1.5L304.09,589l-0.29.43-1,1.78a24,24,0,0,1-1.35,2.28l-0.29.43-0.71,1.14a49.88,49.88,0,0,1-3.77,4.91l-0.85.85-0.43.5a17.38,17.38,0,0,1-2.07,1.92,5.45,5.45,0,0,1-.78.57c-2.49,2.14-5.06,4.63-8.47,5.13a3.48,3.48,0,0,1-.85.07,4.85,4.85,0,0,1-5.56-4.56c0-.36-0.07-0.71-0.07-1.07a5.41,5.41,0,0,1,.07-1.07,5.55,5.55,0,0,1,.14-1.14,28.08,28.08,0,0,1,2.07-6.41l0.36-.78,0.78-2c1.07-2.35,2-4.77,3.13-7.05a7.21,7.21,0,0,1,.5-1.07l0.5-1.07,1.21-2.63,0.36-.85,0.43-1a6.32,6.32,0,0,1,.57-1.21l2.42-4.7a5.86,5.86,0,0,0,.5-0.93c1.35-2.42,2.78-4.84,4-7.34a10.12,10.12,0,0,0,.57-1.28,29.27,29.27,0,0,1,1.5-3l0.57-1.14a17,17,0,0,0,.85-1.57c-4.27,4.06-7.34,8-11.61,12.25a8.09,8.09,0,0,1-.78.78l-2.21,2.49a3.25,3.25,0,0,1-.5.5l-0.85,1c-0.71.93-1.42,1.78-2.21,2.63l-0.43.43a1.88,1.88,0,0,1-.36.43l-0.36.43a58.78,58.78,0,0,1-4,4.42l-0.5.57-0.43.43c-1.71,1.35-3,3.2-4.84,4.42l-0.5.43a33.43,33.43,0,0,0-3.35,3l-0.43.36a4,4,0,0,0-1,1.42v0.64c-0.21,2.42-.57,5-2.71,6.55a3,3,0,0,1-4.49-.93,3.24,3.24,0,0,1-.21-2.49,5.92,5.92,0,0,1,1.14-2.21l1.85-2.21a25.51,25.51,0,0,1,2.06-1.85v-0.36c0-1.42.07-2.78,0.07-4.2l-0.07.07v-2.14c0-1.07.14-2.14,0.07-3.2a2,2,0,0,0,.07-0.64v-1.28c-0.07-1.64-.21-3.28-0.14-4.91v-1.35c0-2.21.07-4.34,0.14-6.55,0-1.07,0-2.21-.07-3.28l-0.14-1.64c-0.28-1.35-.36-2.78-0.57-4.13,0-.28-0.07-0.57-0.07-0.93l-0.21-1.21-0.43,1.21a7.74,7.74,0,0,0-.36,1.21,8.56,8.56,0,0,0-.36,1.28L259,559.85l-0.28,1.07c-1.07,3.06-2.49,5.91-3.49,9a4.93,4.93,0,0,1-.36.93c-0.14.36-.21,0.71-0.36,1-0.14.71-.36,1.35-0.57,2.06a5.43,5.43,0,0,0-.28.78l-0.21.85-1.14,3.28a5.39,5.39,0,0,1-.28.78l-0.28.78a13.23,13.23,0,0,1-.71,1.78,2.54,2.54,0,0,1-.28.64l-0.57,1.28a1,1,0,0,0-.14.43c-0.85,1.71-1.35,3.63-2.35,5.34a2,2,0,0,0-.21.43c-0.71,1.57-1.42,3.06-2.21,4.56a11.08,11.08,0,0,0-.5,1c-0.78,1.78-1.64,3.56-2.56,5.27l-0.57,1a45.49,45.49,0,0,1-6.48,9l-0.5.5-0.78.64-0.71.64A29.24,29.24,0,0,1,231,615l-0.71.64-1.85,1.28a4,4,0,0,1-.93.57,28.41,28.41,0,0,1-9.9,4c-0.21,0-.5.07-0.71,0.07-1,.14-1.92.28-2.92,0.36h-1.07a5.74,5.74,0,0,1-1.57,0c-3.92-.5-8.12-1.35-11.32-3.85a8.09,8.09,0,0,1-.78-0.78,6202563791037.48,6202563791037.48,0,0,1-1-1A19.16,19.16,0,0,1,193,603.79a7.71,7.71,0,0,0-.07-1.28,32.19,32.19,0,0,1,.14-3.7,5.55,5.55,0,0,1,.21-1.57,3.22,3.22,0,0,1,.21-1.14,8.93,8.93,0,0,1,.21-1.35l0.21-.64a17.94,17.94,0,0,1,2.21-4.91,3.9,3.9,0,0,1,.5-0.64,16.64,16.64,0,0,1,10.75-7.34,7.46,7.46,0,0,0,1.21-.28l1.14-.21,1.14-.14c0.85,0,1.78.07,2.64,0.14l0.85,0.14a12.33,12.33,0,0,1,3.06.85,3,3,0,0,1,.71.28,11.23,11.23,0,0,1,4.56,3.06L223.4,586a10.33,10.33,0,0,1,2.14,4.77c0,0.36.07,0.71,0.07,1.07a11.61,11.61,0,0,1-1.57,5.48,7.46,7.46,0,0,1-.57.78,3.16,3.16,0,0,1-.57.78l-0.5.5a7.68,7.68,0,0,1-4.7,2.07,2.91,2.91,0,0,1-.78-0.07,1.72,1.72,0,0,1-1.42-2,1.27,1.27,0,0,1,.57-0.78l0.64-.36c2.14-.28,4.42-1.14,5.41-3.06a6.07,6.07,0,0,0-.57-6.55l-0.64-.85-0.64-.78-0.64-.71a6.73,6.73,0,0,0-1.64-1.14,2.91,2.91,0,0,0-.64-0.36,17.9,17.9,0,0,0-2.07-1,5.47,5.47,0,0,0-1.07-.14,11.5,11.5,0,0,0-4.13.07L209,584l-1.07.43a15.23,15.23,0,0,0-7.76,6.55l-0.57.93-0.43,1a5,5,0,0,0-.36.93,8.29,8.29,0,0,0-.28,1.28,6.29,6.29,0,0,0-.14,1.21,4,4,0,0,0-.21,1.28,20,20,0,0,0-.14,5.06l0.21,1.42a11.36,11.36,0,0,0,.21,1.64l0.43,1.71c0.28,0.85.64,1.71,1,2.56a7.76,7.76,0,0,1,.57,1.07l0.71,1.14,0.85,1a11.17,11.17,0,0,0,1.71,1.5l0.93,0.64a17.14,17.14,0,0,0,3,1.57,5.65,5.65,0,0,0,1,.36,5.35,5.35,0,0,0,1.14.28,1,1,0,0,0,.5.14l1.78,0.36a3.75,3.75,0,0,1,.93.07h0.71a5.41,5.41,0,0,1,1.07.07,17.66,17.66,0,0,0,9.9-3.42l0.64-.57a4.32,4.32,0,0,1,.43-0.36c0.71-.71,2.14-2.06,2.14-2.06,0.93-.85,1.71-1.78,2.56-2.71l0.93-1.21a12.25,12.25,0,0,0,.93-1.07,39.43,39.43,0,0,0,4.34-5.91l0.71-1.28c0.14-.28.36-0.57,0.5-0.93l0.5-.85c0.28-.71.64-1.35,0.93-2l0.5-1,0.36-.93,0.43-.93,0.28-.64,2.63-5.06,0.5-1.07a65.79,65.79,0,0,1,3-6.41l0.5-1.07,0.43-1.14c1.42-2.64,2.07-5.56,3.06-8.33l0.43-1c0.93-2.28,1.78-4.49,2.56-6.84a2.55,2.55,0,0,0,.28-0.78c0.85-2.06,1.64-4.13,2.42-6.2l0.5-1.21c1.78-2.42,1.64-5.77-1-7.48a4.27,4.27,0,0,0-.93-0.64,11.65,11.65,0,0,0-4.49-1.57,7.68,7.68,0,0,0-1.28,0,9.57,9.57,0,0,0-1.42.07H248a0.26,0.26,0,0,0-.21.07h-0.28a2.09,2.09,0,0,1-.64.14l-1.14.43-0.21.07-0.28.14a1.48,1.48,0,0,0-.43.28l-0.21.14h-0.07V545l-0.36.28a6.52,6.52,0,0,0-1.07,5.48,3.63,3.63,0,0,0,.5,1.21,3.1,3.1,0,0,0,1,.93,2.91,2.91,0,0,0,2.42-.21l0.57-.28,0.5-.21-0.07-.07a1.13,1.13,0,0,1,1.35.85,1.78,1.78,0,0,1-1.14,1.85l-0.57.21a9.08,9.08,0,0,1-3.28.57,6.29,6.29,0,0,1-1.21-.14,8.47,8.47,0,0,1-2.28-.71,5.18,5.18,0,0,1-2.64-4.06,8.75,8.75,0,0,1-.14-1.35,7.88,7.88,0,0,1,.14-1.28,8.71,8.71,0,0,1,6.69-7.05,14.47,14.47,0,0,1,6.77-.14,8.56,8.56,0,0,1,1.28.36,11.81,11.81,0,0,1,2.35,1.07c0.36,0.21.78,0.43,1.07,0.64l1,0.78a36.38,36.38,0,0,1,3.42,3.2l0.43,0.5a11.74,11.74,0,0,1,1,1.57,1.78,1.78,0,0,1,.28.5,14.28,14.28,0,0,1,1.42,3l0.21,0.64a46.25,46.25,0,0,1,1.64,5.34,2.54,2.54,0,0,1,.14.71,31.86,31.86,0,0,1,.93,7.34v1.14c0,1.14,0,2.28.07,3.42a46.8,46.8,0,0,1-.36,7.05,14.29,14.29,0,0,1-.28,1.71c0,0.14-.07.36-0.07,0.5-0.28,1.92-.36,3.92-0.64,5.84a0.91,0.91,0,0,0-.07.43c0,0.14-.07.28-0.07,0.43s-0.07.28-.07,0.43l0.43-.43c0.78-.71,1.57-1.42,2.28-2.21l0.78-1,2.49-2.78a7.6,7.6,0,0,0,1-1.14,88,88,0,0,0,6-6.62,6.6,6.6,0,0,0,1-1q3-3,5.77-6.2l1-1c2.92-3.13,6.34-5.77,9.33-8.83l1.28-1.21,1-.85,1-.78a7.65,7.65,0,0,1,.85-0.71,1.29,1.29,0,0,1,.5-0.36l0.71-.5a0.14,0.14,0,0,0,.07-0.14l0.5-.78,0.5-1.28a0.34,0.34,0,0,0,.07-0.28,1.28,1.28,0,0,1,.36-0.5l0.78-1.42a10.34,10.34,0,0,1,2.35-2.92,3.87,3.87,0,0,1,2.42-.85,2.19,2.19,0,0,1,.85.36A2.86,2.86,0,0,1,310,546.53Zm-50.92,51.35c0.07,0,.14-0.07.21-0.07a0.07,0.07,0,0,1,.07-0.07l0.21-.21a0.53,0.53,0,0,1,.21-0.21,1,1,0,0,0,.14-0.28,2.91,2.91,0,0,0,.36-0.64v-0.07c0.07,0,.07-0.07.07-0.14a1.79,1.79,0,0,0,.14-0.36l0.14-.5C259.87,596.1,258.73,597,259.08,597.88Zm48.21-52.13a3.17,3.17,0,0,0-.78.57,5.49,5.49,0,0,0-.64.64,12.91,12.91,0,0,0-1.07,1.64l-0.5.85a11.76,11.76,0,0,0,1.92-1.35,9.7,9.7,0,0,0,.85-0.85,4.57,4.57,0,0,0,.71-0.93A0.45,0.45,0,0,0,307.3,545.75Z" transform="translate(-192.92 -538.58)"/><path class="cls-1" d="M342.47,584.13L340,589l-0.28.43c-1,1.35-1.78,2.78-2.71,4.13l-0.28.43-0.78.85-0.43.43c-1.35,1.28-2.71,2.71-4.56,3.28l-0.57.21a11,11,0,0,1-1.64.5,1.06,1.06,0,0,1-.5.07,4,4,0,0,1-.93,0H326.8a5.06,5.06,0,0,1-1-.07,8,8,0,0,1-3.2-1l-0.28.36a3.06,3.06,0,0,0-.28.5c-0.93,1.35-2.06,2.63-3.06,4l-0.43.5a11.66,11.66,0,0,1-1.21,1.42,1.86,1.86,0,0,0-.36.43,10.55,10.55,0,0,1-6.2,2.78l0.07-.07a4.79,4.79,0,0,1-3.13.43,2.94,2.94,0,0,1-.78-0.07h-0.78l-0.64-.14a16.08,16.08,0,0,1-1.71-.57,1.43,1.43,0,0,1-.57-0.28,6.16,6.16,0,0,1-1.14-.71l-0.5-.43c-2.06-1.92-2.71-5-2.71-7.69L299,598a11.11,11.11,0,0,1,.28-1.5,42.38,42.38,0,0,1,1.78-6.05l1.28-3.06c0.43-.93.85-1.85,1.35-2.78A15.53,15.53,0,0,1,305.5,582l0.64-.78a1.85,1.85,0,0,1,.36-0.43l1.21-1.35,0.43-.43c1-1,2.06-1.92,3-3l0.43-.43,1-.85,0.64-.43c2.63-2.21,5.7-4.2,9.26-4.13a7.73,7.73,0,0,1,1.28,0,8.68,8.68,0,0,1,1.35.14c0.21,0,.43.07,0.57,0.07a6.62,6.62,0,0,1,4.34,3.92,1,1,0,0,1,.14.5l0.14,0.43c0,0.14.07,0.36,0.07,0.5,0.07,0.78.07,1.64,0.07,2.42a8.36,8.36,0,0,1-.57,3.28,13.39,13.39,0,0,1-1.21,4.06l-0.29.57-1.07,3a5,5,0,0,0-.36.93,44.43,44.43,0,0,1-2.21,5,1.79,1.79,0,0,0-.28.5L324,596a575016.54,575016.54,0,0,0,.29.28l0.28,0.14a1,1,0,0,0,.21.14l0.5,0.14a1.57,1.57,0,0,0,.57.07,1.21,1.21,0,0,0,.5.07,1.57,1.57,0,0,0,.57.07h0.85a5.93,5.93,0,0,0,1.57-.21l0.57-.14a9.28,9.28,0,0,0,4.34-2.85l0.43-.5,0.36-.5,0.21-.28,0.29-.36a14.89,14.89,0,0,0,2.14-3.35l0.36-.57,0.28-.57c0.78-1.57,1.5-3.13,2.28-4.63a1,1,0,0,1,1.35-.36A1.15,1.15,0,0,1,342.47,584.13Zm-19.23.71,0.57-.14c0.36,0,.71-0.07,1.07-0.07h0.43a1,1,0,0,1,.14-0.43l0.14-.5a0.74,0.74,0,0,1,.07-0.28,2,2,0,0,0,.07-0.64l0.28-1.21a29,29,0,0,0,.64-4.91v-0.57c0-.14-0.07-0.36-0.07-0.5l-0.14-.57a2.17,2.17,0,0,0-1.5-1.71h-1.35a1.6,1.6,0,0,0-.28.07h-0.21l-0.57.21c-2.21.43-3.92,2-5.41,3.56a8.09,8.09,0,0,0-.78.78,43.6,43.6,0,0,0-3.49,4.63l-0.64.78-0.71.93-0.64.85a7.12,7.12,0,0,0-.57,1,5.92,5.92,0,0,0-.57.85l-1.21,2.56-0.36.93c-1.5,3.35-3.13,7-2.42,10.75l0.21,0.78a2.58,2.58,0,0,0,.28.78,4.24,4.24,0,0,0,1,1.5,5,5,0,0,0,1,.71c1.78,0.57,3.42-.5,4.7-1.57l0.71-.57a17,17,0,0,0,2.63-2.42,3.23,3.23,0,0,1,.5-0.5l0.64-.71,0.28-.28a14.58,14.58,0,0,0,2.21-2.49,4.9,4.9,0,0,1-.78-0.93,4.75,4.75,0,0,1-.71-2.21,2,2,0,0,1-.07-0.64,7.41,7.41,0,0,1,0-1.78v-0.57a6.43,6.43,0,0,1,2.78-4.77,1.14,1.14,0,0,1,.5-0.28A3.31,3.31,0,0,1,323.24,584.85Zm0.64,4a17.35,17.35,0,0,0,.71-2.07,1.57,1.57,0,0,0-.57.07l-0.43.21-0.36.28a4.18,4.18,0,0,0-1.14,3.13c0,0.21-.07.36-0.07,0.57s0.07,0.36.07,0.5-0.07.36-.07,0.57v0.5a0.07,0.07,0,0,1,.07-0.07l0.43-1a0.65,0.65,0,0,1,.21-0.36,2.09,2.09,0,0,1,.21-0.43l0.43-1a1.51,1.51,0,0,0,.28-0.43Z" transform="translate(-192.92 -538.58)"/><path class="cls-1" d="M350,573.81a20.3,20.3,0,0,0,2.85-.28c0.21,0,.43-0.07.64-0.07a18.79,18.79,0,0,0,4.41-.93l0.43-.21L359,572c0.85-.36,1.78-1.07,2.78-0.57a2.4,2.4,0,0,1,1.14,2.64,1.77,1.77,0,0,1-.07.57,1.67,1.67,0,0,1-.14.57c-0.36,1.07-.71,2.14-1,3.28l-0.21.71a18.62,18.62,0,0,1-2.14,5.34c-0.57,1.35-1.35,2.56-1.92,3.92l-0.28.57-0.78,1.71c0,0.14-.07.36-0.07,0.5-0.14.43-.21,0.85-0.43,1.35l-0.21.57c-0.43,1.28-.78,2.49-1.28,3.7l-0.21.43c0,0.14-.07.36-0.07,0.5-0.29,1.35-.78,2.49-1.07,3.85l-0.14.85-0.14.78s-0.07.21,0,.14a0.54,0.54,0,0,0-.07.28v0.64a1.75,1.75,0,0,0,0,.85,3.6,3.6,0,0,0,.14.93,1.52,1.52,0,0,0,.85.5c0.14,0,.28.07,0.5,0.07a1.4,1.4,0,0,0,.5-0.07,1.15,1.15,0,0,0,.64-0.21,9.75,9.75,0,0,0,2.28-1.14l0.5-.36c1.71-1.07,3.35-2.35,5-3.56l0.43-.36,0.5-.36a3.24,3.24,0,0,0,.5-0.5,16.33,16.33,0,0,0,1.57-1.57l0.5-.57a44.94,44.94,0,0,0,3.13-4.13,1.93,1.93,0,0,0,.5-0.57,26.84,26.84,0,0,0,2.78-4.56l0.36-.57,0.28-.57c0.78-1.57,1.5-3.13,2.28-4.63a0.86,0.86,0,0,1,.36-0.36,0.86,0.86,0,0,1,1,0,1.15,1.15,0,0,1,.5,1.5L375.29,589l-0.28.43-1,1.78c-0.5.93-1.07,1.85-1.64,2.71l-0.93,1.21-0.36.43a40.48,40.48,0,0,1-3.77,4.7l-0.43.5-1.5,1.42-0.57.43a60.71,60.71,0,0,1-5.34,3.92,2.46,2.46,0,0,0-.57.36,25.73,25.73,0,0,1-2.78,1.42l-0.78.21a8.56,8.56,0,0,1-1.28.36l-0.5.14c-0.21,0-.43.07-0.64,0.07h-0.71a5.72,5.72,0,0,1-4.06-2,2.84,2.84,0,0,1-.36-0.64,1.6,1.6,0,0,1-.21-0.71l-0.14-.5a1.21,1.21,0,0,0-.07-0.5v-1a21.83,21.83,0,0,1,.29-3.77,2.52,2.52,0,0,1,.14-0.71,2.1,2.1,0,0,1,.14-0.71l0.21-.71c0.43-1.71,1.28-3.35,1.85-5.06l0.21-.57,0.5-1,0.21-.5a1.78,1.78,0,0,1,.28-0.5,13.74,13.74,0,0,1,1-2.56l0.36-.64a27.8,27.8,0,0,0,2.35-5.13l0.21-.5c0.21-.78.5-1.5,0.71-2.21l0.28-.64a7.11,7.11,0,0,1,.64-1.28,5.37,5.37,0,0,1-1.07,0,3.46,3.46,0,0,0-.86-0.07c-0.28,0-.57-0.07-0.85-0.07a2,2,0,0,1-.64-0.07c-0.14,0-.36-0.07-0.57-0.07a21.91,21.91,0,0,1-4.7-.93l-2-.14a19.84,19.84,0,0,1-1.14,2.85c-0.43.93-.86,1.85-1.35,2.78s-0.64,1.78-1.21,2.71l-0.5,1a1,1,0,0,1-1,.71,1.12,1.12,0,0,1-.85-1.71c0.28-.28.21-0.78,0.5-1.07a15.66,15.66,0,0,0,.85-1.92l0.93-1.85,0.93-2.07a12.36,12.36,0,0,0,.71-1.71h-0.07l-1.85-.43-1-.5A4.24,4.24,0,0,1,338.9,572a3.13,3.13,0,0,1-.14-0.71,4.4,4.4,0,0,1,.36-1.92,3.9,3.9,0,0,1,.36-0.57,3.4,3.4,0,0,1,2.14-1.42,2,2,0,0,1,.64-0.07,3.85,3.85,0,0,1,4.77,4v0.43a4.36,4.36,0,0,1-.07.93c0,0.14-.07.28-0.07,0.43l-0.14.43,0.21,0.14h0.5A15.62,15.62,0,0,0,350,573.81Zm-6.19-4.49a0.61,0.61,0,0,0-.36-0.21,0.82,0.82,0,0,0-.93.43,1.67,1.67,0,0,0-.14.57,2.9,2.9,0,0,0,1,2.42c0.07,0.14.07,0.14,1.14,0.57v-0.64a0.9,0.9,0,0,0-.07-0.43,1.07,1.07,0,0,0-.07-0.5,15.7,15.7,0,0,1-.36-1.78Z" transform="translate(-192.92 -538.58)"/><path class="cls-1" d="M410.75,584.13L408.33,589l-0.29.43-1,1.78c-0.5.93-1.07,1.85-1.64,2.71l-0.5.64-0.28.36c-1.35,1.5-2.49,3.2-4,4.63l-0.36.28-0.71.64c-1.35,1-2.78,2.14-4.2,3.06l-0.43.36a17.93,17.93,0,0,1-3.49,1.78l-0.57.21a14.31,14.31,0,0,1-3.56,1.42,1.8,1.8,0,0,0-.5.14,22.91,22.91,0,0,1-5.41,1.14l-0.5.14a1.38,1.38,0,0,0-.5.07h-0.36a6.26,6.26,0,0,1-1.14.14c-2.78.14-6-.57-7.83-2.85-2.56-3.35-1.78-7.76-.93-11.61a50,50,0,0,1,1.71-6.2l0.21-.71c1.07-2.78,2.85-5.2,4.42-7.76a7.63,7.63,0,0,0,.71-0.85,18.82,18.82,0,0,1,5.77-5.34l0.93-.57a15.84,15.84,0,0,1,2.92-1.42,6.62,6.62,0,0,1,1.07-.43,13.46,13.46,0,0,1,2.85-.57h1c4.06-.57,8.69,1.85,8.76,6.34a3.44,3.44,0,0,1,0,1.21c-0.14,3.49-2.14,6.77-4.41,9.33a26.18,26.18,0,0,1-6.27,4.91l-1,.5a29.07,29.07,0,0,1-6.41,2l-0.57.07a14.6,14.6,0,0,1-3.49.78c-1,.07-2,0.14-3,0.14a12.35,12.35,0,0,0,.14,7.69,3,3,0,0,0,1.14,1.5,2.19,2.19,0,0,0,.85.36c0.07,0,.14.07,0.21,0.07a1,1,0,0,0,.21.14,1.64,1.64,0,0,1,.28.07,1.67,1.67,0,0,0,.57.14h0.14a0.14,0.14,0,0,0,.14.07h0.43a1.21,1.21,0,0,1,.5.07c0.36,0,.71.07,1.07,0.07h0.57a8.52,8.52,0,0,0,3.77-.5c0,0.07-.07.07-0.07,0.14a2.2,2.2,0,0,1,.93-0.43l0.43-.14c0.93-.28,1.85-0.57,2.71-0.93l0.57-.21,0.5-.14a12.22,12.22,0,0,0,3.28-1.78l0.43-.28c1.42-1,2.71-2,4-3l0.64-.5,0.28-.28a29.05,29.05,0,0,0,3.63-4.2,1.07,1.07,0,0,0,.29-0.28l0.21-.28a26.84,26.84,0,0,0,2.78-4.56l0.36-.57,0.28-.57c0.78-1.57,1.5-3.13,2.28-4.63a1,1,0,0,1,1.35-.36A1.15,1.15,0,0,1,410.75,584.13ZM382.7,582L381,584.92c-1,1.71-2.07,3.28-3.06,5-0.64,1.28-1.28,2.56-1.85,3.92l2.14-.14a11,11,0,0,0,2.49-.5l2.49-.71a21.08,21.08,0,0,0,6.41-3.7l0.71-.64,0.71-.78a12.65,12.65,0,0,0,1.64-2.21l0.71-1.28A13.06,13.06,0,0,0,395,577.8c0-.36-0.07-0.71-0.07-1.07-0.29-1.21-.64-3.2-2.28-3.13a8,8,0,0,0-1.21.14h-0.07a2.65,2.65,0,0,0-1.57.71l-0.93.85-2.21,1.64a13.84,13.84,0,0,0-2.28,2.28C383.76,580.08,383.27,581.07,382.7,582Z" transform="translate(-192.92 -538.58)"/><path class="cls-1" d="M469.52,565l-0.21,1a20.85,20.85,0,0,1-2,6.61l-0.53,1a13,13,0,0,1-3.2,3.94l-0.85.75a13.93,13.93,0,0,1-2.56,1.81,4.67,4.67,0,0,1-1,.53l-1.92,1.28a2.28,2.28,0,0,0-.75.43l-0.75.43c-2.88,1.28-6.18,1-9.27,1.7h-1.07a51.68,51.68,0,0,1-8.1-.11h-0.75a18.8,18.8,0,0,1-2.45-.11,10.31,10.31,0,0,1,0,2.56v0.85c0.11,2,.21,3.94.21,6a2.66,2.66,0,0,1-.11,1.07c-0.11.85,0,1.71-.11,2.56a1.6,1.6,0,0,1-.11.85v1.07c0,2-.11,3.94-0.11,6v0.85c0,2,.53,3.94.11,6l-0.21.85a2.56,2.56,0,0,1-2,1.7c-0.32,0-.53.11-0.85,0.11a13.9,13.9,0,0,0-3,0,2.38,2.38,0,0,0-1,.11c-2.24,0-5.65,1-7.25-1.28l-0.32-.85c-0.32-1.28.11-2.77,0-3.94v-1.07c0-2.56.21-5.11,0.11-7.67v-1c0-1.6.11-3.2,0-4.79V593a39.38,39.38,0,0,0,0-5c0-.32.11-0.64,0.11-1v-5.54a2.68,2.68,0,0,1-.11-1.07,92.56,92.56,0,0,0-.32-10.87,1.57,1.57,0,0,0,.11-0.75c0-.32.11-0.43,0.11-0.75v-0.85c0-.32.11-0.75,0.11-1.07a3.65,3.65,0,0,1,.11-1.17,14.2,14.2,0,0,1-.32-3V561c-0.11-2.45.32-4.58,0-7v-1.07a46.17,46.17,0,0,1,.21-5.43v-2.24a7.69,7.69,0,0,1,.64-3.84l0.43-.85,0.75-.64c2.88-1,5.65-.43,8.52-0.43h1.07c1.7,0,3.41.11,5.11,0h1.07a31.69,31.69,0,0,1,7.78,0c0.32,0,.53.11,0.85,0.11a23.18,23.18,0,0,1,5.54.64c0.32,0,.75.11,1.07,0.11,3.3,0.11,6.18,1.81,9.06,3.41l1.07,0.53,1,0.75,0.85,0.75,1.6,1.92,0.64,0.85c1.6,2.56,1.92,5.54,2.88,8.42a4.52,4.52,0,0,0,.21,1.17A37.6,37.6,0,0,1,469.52,565Zm-15.13-1a5.73,5.73,0,0,0-.11-2.34c0-.32-0.11-0.43-0.11-0.75v-0.32l-0.21-1a17.36,17.36,0,0,0-1.07-2,3.72,3.72,0,0,0-.64-1c-1.28-2.45-4.58-3-7.24-3.3a2.38,2.38,0,0,1-1,.11,68.47,68.47,0,0,0-8.1,0h-0.75a1.49,1.49,0,0,0-.85.43c-0.43.85-.11,2.24-0.11,3.41v1.07c0,1.7.21,3.3,0.11,5h-0.11a2.36,2.36,0,0,1,.11,1c0,0.32-.11.53-0.11,0.85v0.11h-0.11v0.85a2.36,2.36,0,0,0-.11,1,2.66,2.66,0,0,0,.11,1.07v1.92h2.45c1.17,0,2.13.11,3.3,0.11h1.17c3.09,0.11,6.29.32,9.27-.53l1-.43a4,4,0,0,0,2.13-2.24,1.92,1.92,0,0,0,.43-1l0.32-1.17Z" transform="translate(-192.92 -538.58)"/><path class="cls-1" d="M531.84,577.69a85.33,85.33,0,0,1,0,10.44,33.4,33.4,0,0,1-.43,4.37,6.09,6.09,0,0,0-.11,1.39l-0.53,3.3c0,0.32-.11.75-0.11,1.07s-0.11.64-.11,1a39.82,39.82,0,0,1-4.9,8.84l-0.75.75a25,25,0,0,1-3.73,3.09l-0.85.64c-3,1.81-6.39,2.34-9.7,3.09H509c-4.79-.32-9.7.32-14.28-1.39l-1.39-.53c-2.45-1.17-4.69-2.24-6.39-4.26l-0.85-1a15.46,15.46,0,0,1-2-3.09,25,25,0,0,1-2-4.79,36.88,36.88,0,0,1-1.7-8.42,41.64,41.64,0,0,1-.53-5.11v-1c-0.11-2.88,0-5.54-.32-8.42v-1a48.67,48.67,0,0,1,.21-7.89c0-.32.11-0.64,0.11-1l0.21-2.88c0-.32.11-0.64,0.11-1l0.21-2a36.87,36.87,0,0,1,1.7-8.42,25,25,0,0,1,2-4.79,15.47,15.47,0,0,1,2-3.09l0.85-1c1.7-2,3.94-3.09,6.39-4.26l1.39-.53c4.58-1.71,9.48-1.07,14.28-1.39h1.6c3.3,0.75,6.71,1.28,9.7,3.09l0.85,0.64a25,25,0,0,1,3.73,3.09l0.75,0.75a15.44,15.44,0,0,1,2.45,3.84,17.53,17.53,0,0,1,1.07,2c1.71,2.88,1.71,6.07,2.24,9.16l0.21,2v0.75l0.21,2.13a85.33,85.33,0,0,1,0,10.44v1.17Zm-15.45,5.43c-0.11-1.81.32-3.62,0.32-5.43v-1a24.6,24.6,0,0,0-.21-3v-4.26a23.26,23.26,0,0,1,.11-2.77l-0.21-1.17a7.37,7.37,0,0,0-.53-3c-0.32-2.13-.64-4.16-2-5.86a13.46,13.46,0,0,0-1-1.28l-0.64-.53-0.64-.43a17.69,17.69,0,0,0-9.38-1.28l-1.07.32a6,6,0,0,0-3,1.92l-0.75.75a4.68,4.68,0,0,0-.53,1,10.65,10.65,0,0,0-.85,1.49,17.07,17.07,0,0,0-.75,3.52c0,0.32-.11.64-0.11,1a19.35,19.35,0,0,0-.32,3.41c-0.11,1.6-.21,2.88-0.21,4.26,0,0.43-.11.75-0.11,1.07,0.32,3.09-.11,6.29-0.11,9.38,0,0.43.11,0.75,0.11,1.17s0.11,0.64.11,1.07c0,1.39.11,2.66,0.21,4.26a18.46,18.46,0,0,0,.32,3.41c0,0.32.11,0.64,0.11,1a17.05,17.05,0,0,0,.75,3.52,10.57,10.57,0,0,0,.85,1.49,4.68,4.68,0,0,0,.53,1l0.75,0.75a6,6,0,0,0,3,1.92l1.07,0.32a17.69,17.69,0,0,0,9.38-1.28l0.64-.43,0.64-.53a13.48,13.48,0,0,0,1-1.28c1.39-1.71,1.7-3.73,2-5.86a7.37,7.37,0,0,0,.53-3l0.21-1.17a4.82,4.82,0,0,1-.11-1.39v-2.24C516.5,583.55,516.39,583.44,516.39,583.12Z" transform="translate(-192.92 -538.58)"/><path class="cls-1" d="M630.51,541.78v1a5.39,5.39,0,0,1-.21,1c-1,2.88-1.81,5.65-2.56,8.52a4.14,4.14,0,0,1-.21.64l-0.32,1.39-0.32,1a44.68,44.68,0,0,1-1.28,5.11l-0.32,1.07L624,566.5l-0.21,1.07-0.21.75-0.21,1.07a5.39,5.39,0,0,0-.21,1,4.18,4.18,0,0,1-.43,1c-1.28,3-1.28,6.39-2.45,9.48l-0.21,1-0.64,2.13c-0.75,2.24-1.28,4.48-2.13,6.71v0.53c-0.32.85-.42,1.92-0.75,2.77l-0.32,1a5.37,5.37,0,0,1-.21,1l-0.32,1c-0.42,2.13-1.06,4.26-1.6,6.39l-0.32,1a32.39,32.39,0,0,1-1.6,6.71l-0.53,1a4.62,4.62,0,0,1-.53,1c-2.66,2.66-6.5,1.6-9.91,1.92-0.32,0-.75-0.11-1.06-0.11a5.08,5.08,0,0,1-1.92-.53l-0.85-.64a5,5,0,0,1-1.81-3l-0.32-.85a4.67,4.67,0,0,1-.21-1.07l-2.24-7.25c0-.32-0.11-0.64-0.11-1-0.75-3.09-1.71-6.18-2.45-9.27l-0.32-.85-0.64-2.66L589,586.42c0-.11-0.11-0.43-0.21-0.85l-0.21-.85-1-3.2-1-3.84a5.34,5.34,0,0,0-.21-1c-0.43-1.71-1-3.41-1.49-5-1.17,2.88-1.28,6.07-2.24,9.06l-0.21,1-0.64,2.13c-0.75,2.24-1.28,4.48-2.13,6.71v0.53c-0.32.85-.43,1.92-0.75,2.77l-0.32,1a5.36,5.36,0,0,1-.21,1l-0.32,1c-0.43,2.13-1.07,4.26-1.6,6.39l-0.32,1a32.21,32.21,0,0,1-1.6,6.71l-0.53,1a4.7,4.7,0,0,1-.53,1c-2.66,2.66-6.5,1.6-9.91,1.92-0.32,0-.75-0.11-1.07-0.11a5.08,5.08,0,0,1-1.92-.53l-0.85-.64a5,5,0,0,1-1.81-3l-0.32-.85a4.67,4.67,0,0,1-.21-1.07l-2.24-7.25c0-.32-0.11-0.64-0.11-1-0.75-3.09-1.71-6.18-2.45-9.27l-0.32-.85-0.64-2.66-0.32-1.07c0-.11-0.11-0.43-0.21-0.85l-0.21-.85-1-3.2-1-3.84a5.42,5.42,0,0,0-.21-1c-0.75-3.3-1.81-6.07-2.56-9.16L546,566.5l-1.81-7.78-0.32-1.17-0.85-3-0.32-1a59,59,0,0,0-1.49-5.86l-0.21-.64c-0.11-.43-0.21-0.64-0.21-0.75l-0.32-1c-0.75-1.6-1.39-3.3-.53-4.9,0.75-1.17,2.24-.85,3.41-1.17h0.85a48.17,48.17,0,0,1,5.65.21,2.68,2.68,0,0,1,1.07.11c2,0.32,3.73,1.07,4.26,3.52l0.32,0.85,0.21,1,0.32,1.17c0.75,2.45,1.17,4.48,1.7,6.93,0,0.11.11,0.53,0.21,1.07,0.75,3.52,1.92,6.82,2.66,10.34l0.32,1.07a8.15,8.15,0,0,0,.64,2.13l0.32,1a4.71,4.71,0,0,0,.21,1.07l0.32,1.07a5.44,5.44,0,0,1,.21,1,43.64,43.64,0,0,1,1.07,4.37,8.89,8.89,0,0,1,.53,2.13l0.32,1a5.38,5.38,0,0,1,.21,1,39.73,39.73,0,0,0,1.28,6c0.85-3,1.28-6,2.13-9l1.28-3.84a31.75,31.75,0,0,0,1-4.58l0.32-1,0.21-.75a55.54,55.54,0,0,0,1.28-5.75,5.44,5.44,0,0,0,.21-1c0.53-1.7,1.07-3.41,1.49-5.22a5.37,5.37,0,0,0,.21-1,65.45,65.45,0,0,1,1.92-6.5l0.32-1.07,0.32-1c0.43-2.45,1.28-5.65,3.84-6.18a4.4,4.4,0,0,1,1.28-.11c2.24,0,4.48.43,6.71,0.11l1,0.21a4,4,0,0,1,3.2,3.41l0.32,1.07c0.32,0.75.21,1.17,0.53,1.92l0.32,1,0.32,1.07,1.17,5c0,0.11.11,0.53,0.21,1.07,0.75,3.52,1.92,6.82,2.66,10.34l0.32,1.07a8,8,0,0,0,.64,2.13l0.32,1a4.67,4.67,0,0,0,.21,1.07l0.32,1.07a5.36,5.36,0,0,1,.21,1,43.25,43.25,0,0,1,1.07,4.37,8.79,8.79,0,0,1,.53,2.13l0.32,1a5.39,5.39,0,0,1,.21,1,39.82,39.82,0,0,0,1.28,6c0.85-3,1.28-6,2.13-9l1.28-3.84a31.85,31.85,0,0,0,1-4.58l0.32-1,0.21-.75a55.54,55.54,0,0,0,1.28-5.75,5.36,5.36,0,0,0,.21-1c0.53-1.7,1.07-3.41,1.49-5.22a5.49,5.49,0,0,0,.21-1c0.75-3,1.71-5.75,2.56-8.63l0.32-1.07c0.75-2.24,1.6-4.58,4-4.9h1a25.86,25.86,0,0,1,2.88-.11,2.07,2.07,0,0,1,.85.11C625.82,539.86,630.19,538.37,630.51,541.78Z" transform="translate(-192.92 -538.58)"/><path class="cls-1" d="M685.48,602.62c-0.32,3.3.43,6.71-.53,10.12l-0.21.64-0.53.75c-1,1.17-3.84.32-6,.32h-0.75c-6,0-13.32.11-18.75,0.11h-2.34c-3.3.11-6.5-.21-9.8,0.11h-1.07a8.32,8.32,0,0,1-4.79-.75,1.63,1.63,0,0,1-.43-0.64c-0.42-1.28.11-3.52,0.11-5.33V607.2c0-9-.11-22.48-0.11-25.57v-4.9a52,52,0,0,1,.11-5.75V569.8c0.11-3.84,0-7.67.32-11.51v-0.75c-0.11-2.66,0-5.75,0-8.74V545a5.65,5.65,0,0,1-.21-2.24c0-.43.11-0.75,0.11-1.07a3.53,3.53,0,0,1,2.77-2.13c0.32,0,.64-0.11,1-0.11a49.07,49.07,0,0,1,8.84.11H674.4a13.08,13.08,0,0,0,2,.21h1c2.45,0.32,4.9-.64,6.71.21,1.28,0.75,1.38,1.92,1.28,3.52,0,0.32-.11.75-0.11,1.17-0.42,2,0,3.84-.11,5.86v0.64c-0.11.85-.32,1.49-0.42,2l-0.53.75c-1,1.17-3.84.32-6,.32h-0.75c-7.35,0-16.62.11-22.06,0.11,0,1.39.11,2.45,0.11,2.77v9.38a7.62,7.62,0,0,0-.11,1.49h19a13,13,0,0,0,2,.21h2.24c1.81,0.32,3.62-.53,5.22.43a2.43,2.43,0,0,1,1,2.34v0.75l-0.32,3.52v1.17a14.23,14.23,0,0,0-.11,2.13v1.07c0.53,4.26-4.37,2.77-6.92,3.09h-1.28c-7.35,0-16.2.11-21.1,0.11v1c0.11,3.3,0,6.29,0,9.59v6.39H674.4a13.08,13.08,0,0,0,2,.21h1c2.45,0.32,4.9-.64,6.71.21a2.11,2.11,0,0,1,1.17,1.39Z" transform="translate(-192.92 -538.58)"/><path class="cls-1" d="M749.83,607.84a9.26,9.26,0,0,1-.11,1.71c0,0.11-.11.53-0.21,1.07a5.59,5.59,0,0,1-2.45,3.2l-1.07.43a4.12,4.12,0,0,1-.64.21l-0.64.21a28.77,28.77,0,0,1-4.26.43h-1.07a13.13,13.13,0,0,1-7.88-2.77l-0.75-.53a5,5,0,0,1-1.06-1.07l-0.53-.43a28.81,28.81,0,0,1-4.9-7,4.17,4.17,0,0,1-.43-1,4.11,4.11,0,0,1-.43-1l-0.85-1.71-0.32-1-1.92-4.48a11.41,11.41,0,0,1-.42-1.07,10.73,10.73,0,0,1-.43-1.07,2,2,0,0,1-.43-0.85c-1-2-1.81-3.94-3-6l-0.32-.85c-0.11,0-.21-0.11-0.32-0.11h-0.75a18.8,18.8,0,0,1-2.45-.11,10.38,10.38,0,0,1,0,2.56v0.85c0.11,2,.21,3.94.21,6a2.66,2.66,0,0,1-.11,1.07c-0.11.85,0,1.71-.11,2.56a1.6,1.6,0,0,1-.11.85v1.07c0,2-.11,3.94-0.11,6v0.85c0,2,.53,3.94.11,6l-0.21.85a2.56,2.56,0,0,1-2,1.7c-0.32,0-.53.11-0.85,0.11a13.91,13.91,0,0,0-3,0,2.38,2.38,0,0,0-1,.11c-2.24,0-5.65,1-7.25-1.28l-0.32-.85c-0.32-1.28.11-2.77,0-3.94v-1.07c0-2.56.21-5.11,0.11-7.67v-1c0-1.6.11-3.2,0-4.79V593a39.65,39.65,0,0,0,0-5c0-.32.11-0.64,0.11-1v-5.54a2.7,2.7,0,0,1-.11-1.07,92.56,92.56,0,0,0-.32-10.87,1.57,1.57,0,0,0,.11-0.75c0-.32.11-0.43,0.11-0.75v-0.85c0-.32.11-0.75,0.11-1.07a3.68,3.68,0,0,1,.11-1.17,14.25,14.25,0,0,1-.32-3V561c-0.11-2.45.32-4.58,0-7v-1.07a46.17,46.17,0,0,1,.21-5.43v-2.24a7.69,7.69,0,0,1,.64-3.84l0.42-.85,0.75-.64c2.88-1,5.65-.43,8.52-0.43H709c1.7,0,3.41.11,5.11,0h1.07a31.69,31.69,0,0,1,7.78,0c0.32,0,.53.11,0.85,0.11a23.19,23.19,0,0,1,5.54.64c0.32,0,.75.11,1.07,0.11,3.3,0.11,6.18,1.81,9.06,3.41l1.07,0.53,1,0.75,0.85,0.75,1.6,1.92,0.64,0.85c1.6,2.56,1.92,5.54,2.88,8.42a4.52,4.52,0,0,0,.21,1.17,37.47,37.47,0,0,1-.11,6.93l-0.21,1a20.83,20.83,0,0,1-2,6.61l-0.53,1a13,13,0,0,1-3.2,3.94l-0.85.75a13.93,13.93,0,0,1-2.56,1.81,4.65,4.65,0,0,1-1,.53l-1.92,1.28a2.28,2.28,0,0,0-.75.43l-0.75.43a19.3,19.3,0,0,1-3.3,1,75.4,75.4,0,0,0,4.69,9.8,4.12,4.12,0,0,0,.42,1,10.64,10.64,0,0,0,1.6,2.88,1.47,1.47,0,0,0,.53.85l0.64,0.85,0.64,0.75,0.85,0.64a1.88,1.88,0,0,0,.85.53,9.38,9.38,0,0,0,2.88.75c0.32,0,.53.11,0.85,0.11,1.28,0.32,2.77-.11,3.62.85l0.42,0.43a7.42,7.42,0,0,1,1.17,3.94A2.09,2.09,0,0,1,749.83,607.84Zm-30.69-37.61c3.09,0.11,6.29.32,9.27-.53l1-.43A4,4,0,0,0,731.5,567a1.92,1.92,0,0,0,.43-1l0.32-1.17,0.21-.85a5.7,5.7,0,0,0-.11-2.34c0-.32-0.11-0.43-0.11-0.75v-0.32l-0.21-1a17.46,17.46,0,0,0-1.07-2,3.76,3.76,0,0,0-.64-1c-1.28-2.45-4.58-3-7.25-3.3a2.38,2.38,0,0,1-1,.11,68.48,68.48,0,0,0-8.1,0h-0.75a1.5,1.5,0,0,0-.85.43c-0.42.85-.11,2.24-0.11,3.41v1.07c0,1.7.21,3.3,0.11,5h-0.11a2.36,2.36,0,0,1,.11,1c0,0.32-.11.53-0.11,0.85v0.11h-0.11v0.85a2.36,2.36,0,0,0-.11,1,2.66,2.66,0,0,0,.11,1.07v1.92h2.45c1.17,0,2.13.11,3.3,0.11h1.17Z" transform="translate(-192.92 -538.58)"/><path class="cls-1" d="M757.55,572.57c-0.23.11-.34,0.28-0.56,0.39a5,5,0,0,1-.56.34c-1.18.62-3.44,2.37-4.12,0.56-0.51-1.35,1.75-1.69,2.76-2.37,0.23-.11.45-0.28,0.68-0.39s0.56-.28.9-0.4l0.45-.28a29.14,29.14,0,0,1,5.64-2.37l0.62-.17a10.18,10.18,0,0,0,1.24-.34c0.23-.11.51-0.17,0.73-0.28a2.5,2.5,0,0,0,.56-0.11,0.8,0.8,0,0,0,.51-0.06V567a2.15,2.15,0,0,0,.56-0.17,2.41,2.41,0,0,0,.62-0.11c0.68-.11,1.41-0.28,2.14-0.4a2.82,2.82,0,0,0,.68-0.11c1.86-.34,3.61-1,5.47-1.24a5.81,5.81,0,0,1,.79-0.23,0.83,0.83,0,0,1,.39.06,0.74,0.74,0,0,1,.11.68c-1.69,2.31-5.13,2-7.62,2.76-0.34.06-.62,0.06-1,0.11a0.11,0.11,0,0,0,.11.06l-4.4,1.18a4.69,4.69,0,0,1-.85.23,5.57,5.57,0,0,1-.85.17,3,3,0,0,1-.79.34c-0.28.06-.56,0.23-0.85,0.28a4.42,4.42,0,0,0-.79.28l-0.73.39a11.11,11.11,0,0,0-1.24.79C758,572.29,757.78,572.4,757.55,572.57ZM770,599.14c-1,0-2.09.06-3.1,0.11a3.74,3.74,0,0,0-.79.06,20.06,20.06,0,0,0-3.22.39,2.35,2.35,0,0,1-.56.23,4.86,4.86,0,0,0-.56.39,3.44,3.44,0,0,0-.45.45c-0.06.23-.17,0.34-0.23,0.56a2.48,2.48,0,0,0,.06,1.69,0.88,0.88,0,0,0,.34.45,11.9,11.9,0,0,0,1.75,1.18,1.23,1.23,0,0,1,.45.28,1.69,1.69,0,0,1,.68.85,0.93,0.93,0,0,1,.11.56,2,2,0,0,1-.62,1.47,3,3,0,0,1-3.16.45,2,2,0,0,1-.79-0.34,8.6,8.6,0,0,1-1.3-.9,1.52,1.52,0,0,1-.4-0.45,1.23,1.23,0,0,0-.28-0.45c-0.17-.45-0.39-1.07-0.56-1.58a4.4,4.4,0,0,1,.28-2.54,5.63,5.63,0,0,1,.39-1,5.16,5.16,0,0,0,.28-0.56,4.29,4.29,0,0,0,.45-0.62,4.89,4.89,0,0,1,1-.9,2,2,0,0,1,.56-0.4,4.1,4.1,0,0,1,.51-0.28,5.16,5.16,0,0,1,.79-0.39c0.23-.11.51-0.17,0.73-0.28a17.71,17.71,0,0,1,4.91-.51h0.73c1.52-.06,3-0.11,4.57-0.23,0.23,0,.51-0.06.73-0.06h0.17c0.06,0,.23-0.06.28-0.06a17.34,17.34,0,0,1,2.93-.34,0.06,0.06,0,0,0-.06.06c0.4-.06.85-0.17,1.3-0.23,0.23-.11.45-0.11,0.73-0.23a5.21,5.21,0,0,0,.73-0.23,31,31,0,0,0,5.13-1.24,3.16,3.16,0,0,0,.68-0.23c1.81-.56,3.5-2.26,5.36-1.69a0.38,0.38,0,0,1,0,.56,12.69,12.69,0,0,1-5.53,3.33c-0.23.06-.45,0.17-0.62,0.23l-2,.51c-0.17.06-.34,0.06-0.51,0.11l-1.58.34c-0.17.06-.34,0.11-0.56,0.17l-2.88.51v0.06a1,1,0,0,1-.4.06,8.58,8.58,0,0,1-1.18.17,2,2,0,0,1-.56.11c-0.85.17-1.69,0.17-2.54,0.28-0.23,0-.45.06-0.73,0.06A12.71,12.71,0,0,1,770,599.14Zm6.71-27.36c0.39-.11.68-0.17,1-0.28a1.65,1.65,0,0,0,.51-0.11,17.47,17.47,0,0,0,2-.56c0.51-.17,1-0.39,1.47-0.56a0.2,0.2,0,0,1,.11-0.06,0.28,0.28,0,0,0,.17-0.06l0.34-.17a9.23,9.23,0,0,0,3-2.09,2.22,2.22,0,0,0,.45-0.56,1.75,1.75,0,0,0,.34-0.73,3.23,3.23,0,0,0,.23-0.79,3.61,3.61,0,0,0-.39-2.54,2.45,2.45,0,0,0-2.93-.73,3,3,0,0,1-.62.28,5.52,5.52,0,0,1-1.3.62,2.07,2.07,0,0,1-2-.23,1.32,1.32,0,0,1-.56-0.68,2.55,2.55,0,0,1-.17-0.9c-0.06-2,2.26-2.37,3.72-2.76h1.58l0.9,0.17a5.18,5.18,0,0,1,3.67,2.09c0.17,0.23.28,0.45,0.45,0.68a6.6,6.6,0,0,1,.51,3.44,3.4,3.4,0,0,1-.11.85,5.94,5.94,0,0,1-.68,1.75,2,2,0,0,0-.28.45,1.71,1.71,0,0,0-.28.39l-0.51.51a1.32,1.32,0,0,1-.39.39,2.45,2.45,0,0,1-.4.34,17,17,0,0,1-4.06,2.37,2.36,2.36,0,0,0-.56.23c-0.23.06-.45,0.17-0.68,0.23a4.66,4.66,0,0,1-1.18.34,7.41,7.41,0,0,1-1.52.34c-0.17.06-.34,0.06-0.51,0.11-1.3.11-2.54,0.56-3.78,0.73a2,2,0,0,1-.56.11c-0.23.06-.39,0.06-0.56,0.11a1.75,1.75,0,0,1-.51.06c-2,.39-4.06.28-6,0.9a2,2,0,0,0-.56.11,14.77,14.77,0,0,0-1.69.51,4.71,4.71,0,0,0-1.3.68,14.49,14.49,0,0,0-3,3.16,1.62,1.62,0,0,1-1.41.73,1.24,1.24,0,0,1-1.24-.9c0-2.59,2.59-4.34,5-5.36a6,6,0,0,1,1.41-.51,4408.11,4408.11,0,0,0,1.13-.23,34.06,34.06,0,0,1,6.26-.85c0.23,0,.45-0.06.68-0.06a2.54,2.54,0,0,0,.62-0.06,2.92,2.92,0,0,0,.62-0.11c1-.23,1.92-0.56,2.82-0.73a3,3,0,0,1,.68-0.06h0.11Zm-9.25,11.79a0.8,0.8,0,0,0-.06.51c0.17,2.54.23,5,.23,7.56v1.64a0.78,0.78,0,0,1-1.07.62,1.07,1.07,0,0,1-1-.62,0.2,0.2,0,0,1,.06.11V591.8a68.83,68.83,0,0,0-.34-7.62l-0.06-.28-0.51.17c-0.9.4-2.31,1.64-3,1.24a0.7,0.7,0,0,1-.28-0.45c-0.51-2.48,2.88-2.93,4.46-3.67a5,5,0,0,0,.85-0.28l3.22-1.86a3,3,0,0,1,.68-0.17,3.76,3.76,0,0,1,2.09.23v-0.06c0.34,2.09-3,3-4.34,3.55a2.51,2.51,0,0,0-.62.45A1.15,1.15,0,0,0,767.42,583.57Zm28,14a4.16,4.16,0,0,1-2.31,2.65,2.28,2.28,0,0,0-.51.28l-1.52.85a3,3,0,0,0-.73.4,19.92,19.92,0,0,1-5.53,2.09,1.66,1.66,0,0,0-.56.11c-1.24.28-2.43,0.39-3.61,0.68a2.74,2.74,0,0,0-.68.06c-0.17,0-.34.06-0.51,0.06a1.4,1.4,0,0,0-.51.06,37,37,0,0,1-6.09.51h-0.73c-1,0-2.48-.23-2.54-1.24s1.86-.9,2.76-1c0.28,0,.51-0.06.73-0.06a43.4,43.4,0,0,0,4.68-.23h0.62a4.26,4.26,0,0,1,.85-0.06l2.48-.34a2.12,2.12,0,0,1,.62-0.06,2.82,2.82,0,0,1,.68-0.11,2.84,2.84,0,0,0,.68-0.11,20.78,20.78,0,0,0,2.54-.62,2.54,2.54,0,0,1,.62-0.17c0.51-.23,1.07-0.45,1.64-0.68a2,2,0,0,0,.51-0.23l1.52-.68a2.67,2.67,0,0,1,.68-0.39,1.72,1.72,0,0,0,.39-0.28,2.29,2.29,0,0,0,.51-0.28,2.38,2.38,0,0,0,.39-0.28,5.81,5.81,0,0,0,1.47-1.41,2.19,2.19,0,0,1,.62-0.34,0.63,0.63,0,0,1,.68.56A0.3,0.3,0,0,1,795.4,597.61Zm-7.78-16.92a5,5,0,0,1,.28.85,10.32,10.32,0,0,1,.23,2.65c0,2.71-2.26,4.51-4.57,5.47a6.57,6.57,0,0,1-1.13.28,6.85,6.85,0,0,1-5.7-2.26,5.8,5.8,0,0,1-1.58-4.51,4,4,0,0,1,.23-1.13,5.35,5.35,0,0,1,.51-1.18c1.69-2.88,5.25-5.92,8.69-3.84a8,8,0,0,1,1,.62A5.45,5.45,0,0,1,787.62,580.69Zm-1.81,2.93a6.11,6.11,0,0,0,.06-1,2,2,0,0,0-.23-1,4.5,4.5,0,0,0-.45-0.9,4.91,4.91,0,0,0-.68-0.79,3.82,3.82,0,0,0-3.67-1l0.06-.06a5.27,5.27,0,0,0-3,3.22,1.57,1.57,0,0,0-.17.73v0.73c0.06,2.14,1.41,4.34,3.72,4.51a3.3,3.3,0,0,0,1.07-.11,3.71,3.71,0,0,0,.85-0.28,4.42,4.42,0,0,0,2.43-3.72v-0.39Z" transform="translate(-192.92 -538.58)"/><path class="cls-1" d="M840.55,546.09l-0.42.94c-0.73,1.25-1.56,2.4-2.09,3.55l-0.31.63a18.06,18.06,0,0,1-1,2l-0.31.73c-1.67,3.86-5.63,10.22-7.62,14a2.26,2.26,0,0,1-.42.73,5,5,0,0,0-.52,1.15l-0.42.83a1.88,1.88,0,0,1-.42.94,1.39,1.39,0,0,1-.31.83l-0.52,1-1,2.61a1.33,1.33,0,0,0-.42.73l-0.31.83-0.42.73-0.31.94-0.52.94a18.87,18.87,0,0,1-1.67,3.65l-0.21,4.49c0,0.31-.1.63-0.1,0.94s-0.1.73-.1,1v19.61a5.54,5.54,0,0,1,.21,2.19c0,0.42-.1.73-0.1,1a3.45,3.45,0,0,1-2.71,2.09c-0.31,0-.63.1-0.94,0.1a46.1,46.1,0,0,1-9.28-.21,1.6,1.6,0,0,1-.63-0.42,0.81,0.81,0,0,1-.52-0.63,5.36,5.36,0,0,1-.42-3.65,1.58,1.58,0,0,1-.1-0.83v-1.15a14,14,0,0,1,.1-2.09v-0.83c0-3.65-.1-6.57-0.1-7.09v-9.18c0.1-1.56.21-2.82,0.21-4.17,0-.42.1-0.73,0.1-1v-0.83a9.32,9.32,0,0,1-.63-2.09l-0.31-.63a18.12,18.12,0,0,1-1-2c-0.94-1.77-1.67-3.55-2.5-5.32l-0.31-.83-3.55-7.2-0.31-.63c-1.15-2-2.19-4.28-3.34-6.47-0.1-.31-0.31-0.42-0.42-0.73-1.36-3.34-4.8-8.66-6.26-12.1a4.09,4.09,0,0,0-.21-0.63,2.3,2.3,0,0,1,.31-1.88,3.8,3.8,0,0,1,.94-0.73,1.76,1.76,0,0,1,1-.31c3-.1,6.15-0.63,9.18-0.31h0.94a5.11,5.11,0,0,1,3.34,2l0.52,0.73a16.28,16.28,0,0,1,1,2.29l0.42,0.73c0.52,1.36,2.5,5,3,6.05l0.52,1a37.77,37.77,0,0,0,2,4.17l0.42,0.83a16.32,16.32,0,0,1,1,2.29,4.6,4.6,0,0,1,.42.73c0.42,1.15.94,2,1.36,3.13a8.24,8.24,0,0,0,.94-2.4l0.31-.73c0.73-2.5,2.09-4.49,3.23-6.89,0.1-.31.31-0.31,0.42-0.63a0.38,0.38,0,0,0,.1-0.31l1.25-2.09c0.73-1.25,1.67-2.71,2.4-4.28l0.31-.63c1.36-2,2.19-5.32,4.9-5.84a5.4,5.4,0,0,1,1.15-.21c2.5,0.31,5.11-.1,7.62.21,0.31,0,.73.1,1,0.1h0.73a2.32,2.32,0,0,1,1.67.31C841.69,543.16,841.28,544.83,840.55,546.09Z" transform="translate(-192.92 -538.58)"/><path class="cls-1" d="M899.9,579.05a83.55,83.55,0,0,1,0,10.22,32.7,32.7,0,0,1-.42,4.28,6,6,0,0,0-.1,1.36l-0.52,3.23c0,0.31-.1.73-0.1,1s-0.1.63-.1,0.94a39,39,0,0,1-4.8,8.66l-0.73.73a24.45,24.45,0,0,1-3.65,3l-0.83.63c-2.92,1.77-6.26,2.29-9.49,3h-1.56c-4.69-.31-9.49.31-14-1.36l-1.36-.52c-2.4-1.15-4.59-2.19-6.26-4.17l-0.83-.94a15.14,15.14,0,0,1-2-3,24.47,24.47,0,0,1-2-4.69,36.11,36.11,0,0,1-1.67-8.24,40.72,40.72,0,0,1-.52-5v-0.94c-0.1-2.82,0-5.43-.31-8.24v-0.94a47.65,47.65,0,0,1,.21-7.72c0-.31.1-0.63,0.1-0.94l0.21-2.82c0-.31.1-0.63,0.1-0.94l0.21-2a36.1,36.1,0,0,1,1.67-8.24,24.47,24.47,0,0,1,2-4.69,15.15,15.15,0,0,1,2-3l0.83-.94c1.67-2,3.86-3,6.26-4.17l1.36-.52c4.49-1.67,9.28-1,14-1.36h1.56c3.23,0.73,6.57,1.25,9.49,3l0.83,0.63a24.46,24.46,0,0,1,3.65,3l0.73,0.73a15.12,15.12,0,0,1,2.4,3.76,17.1,17.1,0,0,1,1,2c1.67,2.82,1.67,5.95,2.19,9l0.21,2v0.73l0.21,2.09a83.55,83.55,0,0,1,0,10.22v1.15Zm-15.13,5.32c-0.1-1.77.31-3.55,0.31-5.32v-0.94a24.07,24.07,0,0,0-.21-2.92V571a22.77,22.77,0,0,1,.1-2.71l-0.21-1.15a7.22,7.22,0,0,0-.52-2.92c-0.31-2.09-.63-4.07-2-5.74a13.18,13.18,0,0,0-.94-1.25l-0.63-.52-0.63-.42a17.32,17.32,0,0,0-9.18-1.25l-1,.31a5.91,5.91,0,0,0-2.92,1.88l-0.73.73a4.58,4.58,0,0,0-.52.94,10.46,10.46,0,0,0-.83,1.46,16.72,16.72,0,0,0-.73,3.44c0,0.31-.1.63-0.1,0.94a18.94,18.94,0,0,0-.31,3.34c-0.1,1.56-.21,2.82-0.21,4.17,0,0.42-.1.73-0.1,1,0.31,3-.1,6.16-0.1,9.18,0,0.42.1,0.73,0.1,1.15s0.1,0.63.1,1c0,1.36.1,2.61,0.21,4.17a18.07,18.07,0,0,0,.31,3.34c0,0.31.1,0.63,0.1,0.94a16.71,16.71,0,0,0,.73,3.44,10.45,10.45,0,0,0,.83,1.46,4.58,4.58,0,0,0,.52.94l0.73,0.73a5.91,5.91,0,0,0,2.92,1.88l1,0.31a17.32,17.32,0,0,0,9.18-1.25l0.63-.42,0.63-.52a13.2,13.2,0,0,0,.94-1.25c1.36-1.67,1.67-3.65,2-5.74a7.22,7.22,0,0,0,.52-2.92l0.21-1.15a4.72,4.72,0,0,1-.1-1.36V585.1C884.88,584.79,884.77,584.68,884.77,584.37Z" transform="translate(-192.92 -538.58)"/><path class="cls-1" d="M962.48,589.27a32.72,32.72,0,0,1-.42,4.28,6,6,0,0,0-.1,1.36l-0.52,3.23c0,0.31-.1.73-0.1,1s-0.1.63-.1,0.94a38.93,38.93,0,0,1-4.8,8.66l-0.73.73a24.34,24.34,0,0,1-3.65,3l-0.83.63c-2.92,1.77-6.26,2.29-9.49,3h-1.56c-4.69-.31-9.49.31-14-1.36l-1.36-.52c-2.4-1.15-4.59-2.19-6.26-4.17l-0.83-.94a15.11,15.11,0,0,1-2-3,24.43,24.43,0,0,1-2-4.69,36.15,36.15,0,0,1-1.67-8.24c-0.31-2.61-.52-5.22-0.63-7.72-0.1-3.44-.31-7-0.31-10.43,0-1.67-.1-3.44-0.1-5.11v-1.25c-0.1-1.67,0-3.34,0-4.9a3.49,3.49,0,0,0,0-1c0-2.82-.21-5.63-0.1-8.45a3.58,3.58,0,0,1-.1-1.15l0.21-.83a6,6,0,0,1-.1-1.56,3.58,3.58,0,0,0-.1-1.15c0.1-1.67-.31-3.44,0-5.11l0.21-.83c1.15-3.44,5.42-1.46,7.93-2.29h5a1.27,1.27,0,0,1,.94.42c0.73,0.73.73,2.19,0.83,3.34v1.25c-0.52,2.4.1,5.63,0.1,16.17a47.52,47.52,0,0,0-.1,7.72v1c0.31,3.34-.52,6.78,0,10.12a2.62,2.62,0,0,0,.1,1c0,0.42.1,0.73,0.1,1.15v1c0,1.36.1,2.61,0.21,4.17a12.19,12.19,0,0,0,.42,3.34v0.94a11.75,11.75,0,0,0,.83,3.44,10.46,10.46,0,0,0,.83,1.46,4.6,4.6,0,0,0,.52.94l0.73,0.73a5.9,5.9,0,0,0,2.92,1.88l1,0.31a17.32,17.32,0,0,0,9.18-1.25l0.63-.42,0.63-.52a13.08,13.08,0,0,0,.94-1.25c1.77-2.09,2.4-5.74,2.5-8.66l0.21-1.15a23.42,23.42,0,0,1,0-2.71V585.1c-0.1-3.23.31-6.16,0.42-9.18v-1.15c-0.1-3.44-.73-6.78-0.73-10.22V564c0-1.56-.1-2.71-0.1-4.28a5.56,5.56,0,0,1-.1-1.46c0-.52.1-1,0.1-1.56v-1.67c0.31-3.65-.73-7.2-0.21-10.85a2.93,2.93,0,0,1,2.19-2.71,2.22,2.22,0,0,1,1.25-.31c1.25-.1,2.82-0.21,4.49-0.21H956c2.19,0.31,5.63-.42,6.15,2.29,0.73,3,.1,6.05,0,9.08a1.34,1.34,0,0,1-.1.73v3.65a27.25,27.25,0,0,0,.1,2.92,6,6,0,0,1,.1,1.56c0.1,2.82.1,5.22,0.1,8a10.12,10.12,0,0,1-.1,1.67v2.92c0.1,1.77.21,3.44,0.21,5.22A84.12,84.12,0,0,1,962.48,589.27Z" transform="translate(-192.92 -538.58)"/></svg>