<svg id="Layer_2" data-name="Layer 2" xmlns="http://www.w3.org/2000/svg" viewBox="0 0 92.32 34.11"><title>people</title><path d="M1086.86,473.94H994.58v-1.37c0-.07,0-0.13,0-0.19,0-9,6.09-16.33,14-17.54a7.7,7.7,0,1,1,4.55,0c6.79,1,12.22,6.65,13.62,13.88a15,15,0,0,1,5.41-1.93,7.69,7.69,0,1,1,4.54,0,15.64,15.64,0,0,1,8.48,4.27,6.21,6.21,0,0,1,4-2.51,3,3,0,1,1,1.77,0,6.22,6.22,0,0,1,4,2.44,9,9,0,0,1,5.93-3.73,4.35,4.35,0,1,1,2.57,0,8.47,8.47,0,0,1,3.06,1.09,9.55,9.55,0,0,1,7.69-7.84,4.35,4.35,0,1,1,2.57,0S1087.58,460.41,1086.86,473.94Z" transform="translate(-994.57 -439.83)"/></svg>