<svg id="Layer_1" data-name="Layer 1" xmlns="http://www.w3.org/2000/svg" viewBox="0 0 56.52 28.54"><defs><style>.cls-1{fill:#231f20;}</style></defs><title>power</title><path class="cls-1" d="M321,399.51l4.05,3.54-3.73,4.28,13.84,2.7-4.57-13.34-3.68,4.22-4-3.45-1-.88-13.4-11.67a1.46,1.46,0,0,0-1.07-.34,1.39,1.39,0,0,0-1,.54l-8.89,11.33-16.63-14.59a1.41,1.41,0,1,0-1.86,2.12l17.76,15.58a1.44,1.44,0,0,0,1.06.34,1.48,1.48,0,0,0,1-.53L307.78,388,320,398.65Z" transform="translate(-278.6 -381.5)"/></svg>