<svg id="Layer_1" data-name="Layer 1" xmlns="http://www.w3.org/2000/svg" viewBox="0 0 44.04 28.02"><defs><style>.cls-1{fill:#231f20;}</style></defs><title>shake</title><path class="cls-1" d="M322.08,464.87a1.58,1.58,0,0,1-1-2.79l3.86-3.2a1.58,1.58,0,1,1,2,2.43l-3.86,3.2A1.55,1.55,0,0,1,322.08,464.87Z" transform="translate(-311.55 -447.23)"/><path class="cls-1" d="M324.25,468.06a1.56,1.56,0,0,1-1.21-.57,1.58,1.58,0,0,1,.21-2.22l4.95-4.09a1.57,1.57,0,0,1,2.22.21,1.59,1.59,0,0,1-.21,2.22l-4.95,4.09A1.57,1.57,0,0,1,324.25,468.06Z" transform="translate(-311.55 -447.23)"/><path class="cls-1" d="M327.05,470.73a1.58,1.58,0,0,1-1-2.79l3.57-2.95a1.58,1.58,0,1,1,2,2.43l-3.56,3A1.59,1.59,0,0,1,327.05,470.73Z" transform="translate(-311.55 -447.23)"/><path class="cls-1" d="M329.65,473.57a1.58,1.58,0,0,1-1-2.8l2.06-1.7a1.58,1.58,0,0,1,2,2.43l-2.07,1.7A1.51,1.51,0,0,1,329.65,473.57Z" transform="translate(-311.55 -447.23)"/><path class="cls-1" d="M345.74,451.34c1,1.65,4,6.88,4.07,6.94l0.21,0.36,5.58-2.94-4-7.52-5.93,3.12Z" transform="translate(-311.55 -447.23)"/><path class="cls-1" d="M345.19,451.66a27.26,27.26,0,0,0-12.31-1.81,1.62,1.62,0,0,0-.85.16l-6.65,3.34a1.58,1.58,0,0,0,1.43,2.82l6.65-3.34a0,0,0,0,1,0,0c4.84,3.32,11.17,10.06,11.17,10.06,0.82-.32,1.78-2.36,2.22-2.78a24.89,24.89,0,0,1,2.4-1.52S346.22,453.33,345.19,451.66Z" transform="translate(-311.55 -447.23)"/><path class="cls-1" d="M335.52,472.95l-1.69-3.25a2.45,2.45,0,0,1,.08.8,2.25,2.25,0,0,1-.79,1.5l-1.15,1,0.75,1.45a1.57,1.57,0,0,0,1.4.85,1.55,1.55,0,0,0,.72-0.17A1.59,1.59,0,0,0,335.52,472.95Z" transform="translate(-311.55 -447.23)"/><path class="cls-1" d="M343.31,462.42a84.43,84.43,0,0,0-9.9-8.85l-6.32,3.18a2.27,2.27,0,0,1-1,.23,2.21,2.21,0,0,1-1-4.18l2.5-1.26-5.32.44-5.58,5.76,3.66,4.16a3,3,0,0,1,.29-0.3l3.87-3.2a2.21,2.21,0,0,1,1.4-.5,2.19,2.19,0,0,1,2.17,2.58,2.24,2.24,0,0,1,1.1-.29,4.1,4.1,0,0,0,3.11,4.61,2.22,2.22,0,0,1-.29,3.11l-0.22.18a2.11,2.11,0,0,1,1.77,1l0.61-.41,2,4a1.58,1.58,0,0,0,2.81-1.45l-2.27-4.39,0.62-.46,2.47,4.79a1.59,1.59,0,0,0,1.42.86,1.55,1.55,0,0,0,.72-0.18,1.58,1.58,0,0,0,.67-2.13l-2.7-5.23,0.63-.46,2.59,5a1.57,1.57,0,0,0,1.4.85,1.53,1.53,0,0,0,.72-0.17,1.59,1.59,0,0,0,.69-2.13Z" transform="translate(-311.55 -447.23)"/><polygon class="cls-1" points="10.36 4.24 6.11 0 0 6.12 4.34 10.44 10.36 4.24"/></svg>