<svg id="ICONS" xmlns="http://www.w3.org/2000/svg" xmlns:xlink="http://www.w3.org/1999/xlink" viewBox="0 0 63.99 43.98"><defs><style>.cls-1{fill:none;}.cls-2{clip-path:url(#clip-path);}</style><clipPath id="clip-path" transform="translate(-675.42 -428.27)"><path class="cls-1" d="M683.87,469.09c-1.44-.56,11.22-22.67,11.22-22.67l24.73,0.2L704.35,418.4l-35.25-1-17.46,21.15,13.43,30.55h18.8Z"/></clipPath></defs><title>solarpanel</title><path d="M726.25,448.07a6.76,6.76,0,0,1,6.75,6.75v6.28h-0.91a3.21,3.21,0,0,0-3.2,3.2v2h10.52v-2a3.21,3.21,0,0,0-3.2-3.2H735.3v-6.28a9,9,0,0,0-18.09,0h2.3A6.75,6.75,0,0,1,726.25,448.07Z" transform="translate(-675.42 -428.27)"/><path d="M728.89,466.85V470h2v2.26h2.3V470h2v2.26h2.3V470h2v-3.13H728.89Z" transform="translate(-675.42 -428.27)"/><polygon points="29.83 28.33 23.61 28.33 22.41 32.69 29.83 32.69 29.83 28.33"/><polygon points="21.13 37.38 29.83 37.38 29.83 33.27 22.26 33.26 21.13 37.38"/><polygon points="37.97 33.27 30.4 33.27 30.4 37.38 39.1 37.38 37.97 33.27"/><polygon points="30.4 32.69 37.82 32.69 36.62 28.33 30.4 28.33 30.4 32.69"/><polygon points="30.4 24.4 30.4 27.76 36.47 27.76 35.55 24.4 30.4 24.4"/><polygon points="29.83 24.4 24.69 24.4 23.77 27.76 29.83 27.76 29.83 24.4"/><path d="M705.25,447.72h-3.79l-1.2,4.38h5v-4.38Z" transform="translate(-675.42 -428.27)"/><path d="M710.21,447.72l1.2,4.38H718l-2.4-4.38h-5.38Z" transform="translate(-675.42 -428.27)"/><path d="M705.83,447.72v4.38h5l-1.2-4.38h-3.79Z" transform="translate(-675.42 -428.27)"/><path d="M685.51,466.51v3.71h40.06v-3.71H685.51Z" transform="translate(-675.42 -428.27)"/><path d="M696,465.65l1.13-4.12h-9.17l-2.26,4.12H696Z" transform="translate(-675.42 -428.27)"/><path d="M697.24,461l1.19-4.36h-7.82L688.23,461h9Z" transform="translate(-675.42 -428.27)"/><path d="M698.6,456l0.92-3.36h-6.74L690.94,456h7.66Z" transform="translate(-675.42 -428.27)"/><path d="M699.67,452.09l1.2-4.38h-5.38l-2.4,4.38h6.58Z" transform="translate(-675.42 -428.27)"/><path d="M711.57,452.67l0.92,3.36h7.66l-1.84-3.36h-6.74Z" transform="translate(-675.42 -428.27)"/><path d="M712.64,456.6l1.19,4.36h9l-2.39-4.36h-7.82Z" transform="translate(-675.42 -428.27)"/><path d="M714,461.53l1.13,4.12h10.29l-2.26-4.12H714Z" transform="translate(-675.42 -428.27)"/><g class="cls-2"><path d="M691.18,453.14h0a9.13,9.13,0,1,0-6.48-15.57,9.07,9.07,0,0,0,6.48,15.57Zm-4-13.15a5.7,5.7,0,1,1-1.66,4A5.7,5.7,0,0,1,687.14,440Z" transform="translate(-675.42 -428.27)"/><polygon points="17.44 0 14.01 0.01 15.73 6.09 17.44 0"/><polygon points="25.65 3.39 22.57 8.91 28.08 5.81 25.65 3.39"/><polygon points="31.5 17.44 31.5 14.01 25.41 15.73 31.5 17.44"/><polygon points="28.11 25.65 22.59 22.57 25.7 28.08 28.11 25.65"/><polygon points="15.77 25.41 14.06 31.5 17.49 31.5 15.77 25.41"/><polygon points="5.85 28.11 8.94 22.59 3.42 25.7 5.85 28.11"/><polygon points="6.09 15.77 0 14.06 0.01 17.49 6.09 15.77"/><polygon points="5.81 3.42 3.39 5.85 8.91 8.94 5.81 3.42"/></g></svg>