<svg id="ICONS" xmlns="http://www.w3.org/2000/svg" viewBox="0 0 31.52 26.19"><title>stacks</title><path d="M337.94,452.72h1.51v-2.5h-1.18a0.51,0.51,0,0,0-.38.17C337.67,450.63,337.77,450.66,337.94,452.72Z" transform="translate(-334.3 -445.63)"/><path d="M343.2,452.72h1.5v-2.5h-1.5v2.5Z" transform="translate(-334.3 -445.63)"/><path d="M341.45,452.72h1.5v-2.5h-1.5v2.5Z" transform="translate(-334.3 -445.63)"/><path d="M346.49,450.22H345v2.5h1.64C346.58,451.94,346.55,451.1,346.49,450.22Z" transform="translate(-334.3 -445.63)"/><path d="M339.7,452.72h1.5v-2.5h-1.5v2.5Z" transform="translate(-334.3 -445.63)"/><path d="M344.26,466.58h0a25.79,25.79,0,0,1-2.72,4.88H334.3c3.49-5.39,4.13-11.33,3.71-17.71h8.59a41,41,0,0,1-.3,5.1A21.68,21.68,0,0,1,344.26,466.58Z" transform="translate(-334.3 -445.63)"/><path d="M347.66,448.65h1.65v-3h-1.37a0.51,0.51,0,0,0-.38.17C347.34,446,347.45,446,347.66,448.65Z" transform="translate(-334.3 -445.63)"/><path d="M359.6,445.63v3h1.65c0.21-2.62.32-2.61,0.1-2.85a0.51,0.51,0,0,0-.38-0.17H359.6Z" transform="translate(-334.3 -445.63)"/><path d="M343.1,471.81h22.71c-4.37-6.6-5.16-13.9-4.64-21.78H347.74c0.1,1.39.13,2.8,0.13,3h0a36.62,36.62,0,0,1-1.55,12h0A27.17,27.17,0,0,1,343.1,471.81Z" transform="translate(-334.3 -445.63)"/><path d="M354.46,457.49a4.95,4.95,0,1,1-4.95,5A5,5,0,0,1,354.46,457.49Z" transform="translate(-334.3 -445.63)"/><path d="M351.32,445.63h-1.75v3h1.75v-3Z" transform="translate(-334.3 -445.63)"/><path d="M353.33,445.63h-1.75v3h1.75v-3Z" transform="translate(-334.3 -445.63)"/><path d="M355.34,445.63h-1.75v3h1.75v-3Z" transform="translate(-334.3 -445.63)"/><path d="M357.34,445.63h-1.75v3h1.75v-3Z" transform="translate(-334.3 -445.63)"/><path d="M359.35,445.63H357.6v3h1.75v-3Z" transform="translate(-334.3 -445.63)"/></svg>